<svg width="44" height="44" viewBox="0 0 44 44" fill="none" xmlns="http://www.w3.org/2000/svg">
<path d="M16.4993 9.16675H12.8327C11.8602 9.16675 10.9276 9.55306 10.24 10.2407C9.55232 10.9283 9.16602 11.861 9.16602 12.8334V34.8334C9.16602 35.8059 9.55232 36.7385 10.24 37.4261C10.9276 38.1138 11.8602 38.5001 12.8327 38.5001H31.166C32.1385 38.5001 33.0711 38.1138 33.7587 37.4261C34.4464 36.7385 34.8327 35.8059 34.8327 34.8334V12.8334C34.8327 11.861 34.4464 10.9283 33.7587 10.2407C33.0711 9.55306 32.1385 9.16675 31.166 9.16675H27.4993" stroke="#FF5721" stroke-width="2.75" stroke-linecap="round" stroke-linejoin="round"/>
<path d="M23.8333 5.5H20.1667C18.1416 5.5 16.5 7.14162 16.5 9.16667C16.5 11.1917 18.1416 12.8333 20.1667 12.8333H23.8333C25.8584 12.8333 27.5 11.1917 27.5 9.16667C27.5 7.14162 25.8584 5.5 23.8333 5.5Z" stroke="#FF5721" stroke-width="2.75" stroke-linecap="round" stroke-linejoin="round"/>
<path d="M25.6673 20.1667H21.084C20.3546 20.1667 19.6552 20.4565 19.1394 20.9722C18.6237 21.4879 18.334 22.1874 18.334 22.9167C18.334 23.6461 18.6237 24.3456 19.1394 24.8613C19.6552 25.377 20.3546 25.6667 21.084 25.6667H22.9173C23.6467 25.6667 24.3461 25.9565 24.8619 26.4722C25.3776 26.9879 25.6673 27.6874 25.6673 28.4167C25.6673 29.1461 25.3776 29.8456 24.8619 30.3613C24.3461 30.877 23.6467 31.1667 22.9173 31.1667H18.334" stroke="#FF5721" stroke-width="2.75" stroke-linecap="round" stroke-linejoin="round"/>
<path d="M22 18.3333V20.1667M22 31.1667V33V31.1667Z" stroke="#FF5721" stroke-width="2.75" stroke-linecap="round" stroke-linejoin="round"/>
</svg>
