<svg width="44" height="44" viewBox="0 0 44 44" fill="none" xmlns="http://www.w3.org/2000/svg">
<path d="M16.4993 20.1667C20.5494 20.1667 23.8327 16.8834 23.8327 12.8333C23.8327 8.78325 20.5494 5.5 16.4993 5.5C12.4493 5.5 9.16602 8.78325 9.16602 12.8333C9.16602 16.8834 12.4493 20.1667 16.4993 20.1667Z" stroke="#FF5721" stroke-width="2.75" stroke-linecap="round" stroke-linejoin="round"/>
<path d="M5.5 38.5V34.8333C5.5 32.8884 6.27262 31.0232 7.64788 29.6479C9.02315 28.2726 10.8884 27.5 12.8333 27.5H20.1667C22.1116 27.5 23.9769 28.2726 25.3521 29.6479C26.7274 31.0232 27.5 32.8884 27.5 34.8333V38.5" stroke="#FF5721" stroke-width="2.75" stroke-linecap="round" stroke-linejoin="round"/>
<path d="M29.334 5.73828C30.9114 6.14217 32.3096 7.05957 33.308 8.34585C34.3064 9.63213 34.8484 11.2141 34.8484 12.8424C34.8484 14.4708 34.3064 16.0528 33.308 17.339C32.3096 18.6253 30.9114 19.5427 29.334 19.9466" stroke="#FF5721" stroke-width="2.75" stroke-linecap="round" stroke-linejoin="round"/>
<path d="M38.5 38.5V34.8333C38.4907 33.2148 37.9462 31.6448 36.9513 30.3681C35.9565 29.0913 34.5672 28.1796 33 27.775" stroke="#FF5721" stroke-width="2.75" stroke-linecap="round" stroke-linejoin="round"/>
</svg>
