<svg width="44" height="44" viewBox="0 0 44 44" fill="none" xmlns="http://www.w3.org/2000/svg">
<path d="M38.5007 25.6667L33.0007 20.1667H20.1673C19.6811 20.1667 19.2148 19.9735 18.871 19.6297C18.5271 19.2859 18.334 18.8196 18.334 18.3333V7.33333C18.334 6.8471 18.5271 6.38079 18.871 6.03697C19.2148 5.69315 19.6811 5.5 20.1673 5.5H36.6673C37.1535 5.5 37.6199 5.69315 37.9637 6.03697C38.3075 6.38079 38.5007 6.8471 38.5007 7.33333V25.6667Z" stroke="#FF5721" stroke-width="2.75" stroke-linecap="round" stroke-linejoin="round"/>
<path d="M25.6667 27.5V31.1667C25.6667 31.6529 25.4735 32.1192 25.1297 32.463C24.7859 32.8068 24.3196 33 23.8333 33H11L5.5 38.5V20.1667C5.5 19.6804 5.69315 19.2141 6.03697 18.8703C6.38079 18.5265 6.8471 18.3333 7.33333 18.3333H11" stroke="#FF5721" stroke-width="2.75" stroke-linecap="round" stroke-linejoin="round"/>
</svg>
