<svg width="1680" height="780" viewBox="0 0 1680 780" fill="none" xmlns="http://www.w3.org/2000/svg">
<mask id="mask0_307_1078" style="mask-type:alpha" maskUnits="userSpaceOnUse" x="0" y="0" width="1680" height="780">
<path fill-rule="evenodd" clip-rule="evenodd" d="M1680 516.165C1625.2 515.152 1562.68 518.145 1491.5 527.501C1344.43 546.831 1164.33 592.836 978.275 640.361C713.464 708.003 436.596 778.724 225.759 780H214.28C130.146 779.482 57.0071 767.429 0 739.07L0 0H1680V516.165Z" fill="url(#paint0_linear_307_1078)"/>
</mask>
<g mask="url(#mask0_307_1078)">
<path fill-rule="evenodd" clip-rule="evenodd" d="M1680 516.184C1624.97 515.116 1562.11 518.088 1490.5 527.501C1343.43 546.831 1163.33 592.836 977.275 640.361C712.467 708.002 435.603 778.722 224.767 780H213.272C129.142 779.481 56.0052 767.428 -1 739.07L-1 0H1680V516.184Z" fill="url(#paint1_linear_307_1078)"/>
<g opacity="0.7" filter="url(#filter0_f_307_1078)">
<circle cx="1778.5" cy="856.5" r="658.5" fill="#FF5721"/>
</g>
<g filter="url(#filter1_f_307_1078)">
<circle cx="1101.5" cy="1024.5" r="476.5" fill="#7A83FE"/>
</g>
</g>
<defs>
<filter id="filter0_f_307_1078" x="748" y="-174" width="2061" height="2061" filterUnits="userSpaceOnUse" color-interpolation-filters="sRGB">
<feFlood flood-opacity="0" result="BackgroundImageFix"/>
<feBlend mode="normal" in="SourceGraphic" in2="BackgroundImageFix" result="shape"/>
<feGaussianBlur stdDeviation="186" result="effect1_foregroundBlur_307_1078"/>
</filter>
<filter id="filter1_f_307_1078" x="253" y="176" width="1697" height="1697" filterUnits="userSpaceOnUse" color-interpolation-filters="sRGB">
<feFlood flood-opacity="0" result="BackgroundImageFix"/>
<feBlend mode="normal" in="SourceGraphic" in2="BackgroundImageFix" result="shape"/>
<feGaussianBlur stdDeviation="186" result="effect1_foregroundBlur_307_1078"/>
</filter>
<linearGradient id="paint0_linear_307_1078" x1="272" y1="113.5" x2="272" y2="762.5" gradientUnits="userSpaceOnUse">
<stop offset="0.00418257" stop-color="#24233F"/>
<stop offset="1" stop-color="#39386C"/>
</linearGradient>
<linearGradient id="paint1_linear_307_1078" x1="1447.5" y1="318.5" x2="27.1578" y2="742.766" gradientUnits="userSpaceOnUse">
<stop stop-color="#4D4B8E"/>
<stop offset="1" stop-color="#24233F"/>
</linearGradient>
</defs>
</svg>
