<svg width="41" height="45" viewBox="0 0 41 45" fill="none" xmlns="http://www.w3.org/2000/svg">
<path d="M28.7354 10.378C30.9317 10.6377 35.8921 11.5824 38.1632 13.2829L38.6153 12.529C38.0678 12.0233 36.8235 10.8906 36.226 10.4049C37.0309 8.74562 38.2252 4.3678 36.5625 0.130814L34.9075 2.08926C34.9014 3.80179 34.4681 7.64844 32.7841 9.33479L29.1886 9.32187L28.7354 10.378Z" fill="#FF5721"/>
<path d="M10.6816 35.8443C6.7726 39.6734 2.79432 42.4529 0.000170432 43.9789C6.71784 44.2138 12.6013 42.8274 17.6598 40.5139C15.1584 39.2177 12.8194 37.648 10.6816 35.8443Z" fill="#FF5721"/>
<path d="M21.1006 38.7318C18.1123 37.3945 15.3286 35.6775 12.8095 33.6417C15.2659 30.9527 17.6003 27.8498 19.4852 24.3864C20.2772 24.9058 21.0899 25.396 21.9215 25.8555C19.9643 29.5711 17.8418 32.5936 16.5147 34.209C19.1549 32.5833 21.5353 29.7652 23.5258 26.6921C26.2104 28.0107 29.0735 29.0178 32.069 29.6666C29.1302 32.9782 25.4767 36.1903 21.1006 38.7318Z" fill="#FF5721"/>
<path d="M29.1679 15.0638C28.43 17.2472 27.0291 20.6286 25.1295 24.0245C27.9749 25.412 31.0194 26.4501 34.2087 27.0832C37.025 23.4382 38.9845 19.8512 40.0971 17.0748C35.5589 12.5857 27.2327 11.639 23.6368 11.7269C23.2176 15.2367 22.2308 18.5348 20.8687 21.5899C21.6563 22.1108 22.4644 22.6028 23.2916 23.0644C24.5434 20.3111 25.6082 17.3116 26.1743 14.2975C26.8235 14.2999 28.3311 14.4564 29.1679 15.0638Z" fill="#FF5721"/>
</svg>
